<svg id="visual" viewBox="0 0 1920 1080" width="1920" height="1080" xmlns="http://www.w3.org/2000/svg" xmlns:xlink="http://www.w3.org/1999/xlink" version="1.1"><rect x="0" y="0" width="1920" height="1080" fill="#071952"></rect><defs><linearGradient id="grad1_0" x1="43.8%" y1="0%" x2="100%" y2="100%"><stop offset="14.444444444444446%" stop-color="#071952" stop-opacity="1"></stop><stop offset="85.55555555555554%" stop-color="#071952" stop-opacity="1"></stop></linearGradient></defs><defs><linearGradient id="grad2_0" x1="0%" y1="0%" x2="56.3%" y2="100%"><stop offset="14.444444444444446%" stop-color="#071952" stop-opacity="1"></stop><stop offset="85.55555555555554%" stop-color="#071952" stop-opacity="1"></stop></linearGradient></defs><g transform="translate(1920, 0)"><path d="M0 540C-42.2 512.7 -84.5 485.4 -125.8 469.4C-167.1 453.4 -207.4 448.7 -253.5 439.1C-299.6 429.4 -351.4 414.8 -381.8 381.8C-412.3 348.8 -421.4 297.4 -440.8 254.5C-460.2 211.6 -489.8 177.1 -508.1 136.1C-526.3 95.1 -533.2 47.6 -540 0L0 0Z" fill="#35A29F"></path></g><g transform="translate(0, 1080)"><path d="M0 -540C49.5 -537.6 99 -535.3 137.2 -511.9C175.4 -488.6 202.3 -444.3 244.5 -423.5C286.7 -402.7 344.2 -405.4 381.8 -381.8C419.5 -358.3 437.4 -308.4 457.3 -264C477.1 -219.6 498.8 -180.5 512.9 -137.4C527 -94.3 533.5 -47.2 540 0L0 0Z" fill="#35A29F"></path></g></svg>